<svg id="logo_app" viewBox="0 0 555 555" fill="none" xmlns="http://www.w3.org/2000/svg">
<g>
<g id="colored_dots">
<path id="circle_green" d="M258.204 182.239C302.806 173.168 331.62 129.621 322.55 85.0172C313.48 40.4133 269.934 11.598 225.332 20.6689C180.73 29.7397 151.916 73.2866 160.987 117.891C170.057 162.529 213.602 191.31 258.204 182.239Z" fill="#00867C"/>
<path id="circle_yellow" d="M328.825 529.32C373.427 520.249 402.241 476.702 393.17 432.098C384.1 387.494 340.555 358.679 295.953 367.75C251.351 376.821 222.537 420.367 231.607 464.971C240.678 509.61 284.223 538.425 328.825 529.32Z" fill="#E5B920"/>
<path id="circle_blue" d="M435.042 239.732C479.644 230.661 508.458 187.114 499.388 142.51C490.317 97.9065 446.772 69.0912 402.17 78.162C357.568 87.2329 328.754 130.78 337.825 175.384C346.895 220.022 390.44 248.837 435.042 239.732Z" fill="#177FA0"/>
<path id="circle_orange" d="M120.886 303.671C165.488 294.6 194.302 251.053 185.232 206.449C176.161 161.845 132.616 133.03 88.0143 142.101C43.4123 151.171 14.5984 194.718 23.6688 239.322C32.7392 283.926 76.2842 312.742 120.886 303.671Z" fill="#E06C23"/>
<path id="circle_purple" d="M467.986 416.885C512.588 407.814 541.402 364.267 532.331 319.663C523.261 275.059 479.716 246.244 435.114 255.315C390.512 264.386 361.698 307.933 370.768 352.537C379.839 397.141 423.35 425.956 467.986 416.885Z" fill="#660066"/>
<path id="circle_pink" d="M153.828 480.793C198.43 471.722 227.244 428.175 218.174 383.571C209.103 338.967 165.558 310.152 120.956 319.223C76.3542 328.294 47.5403 371.841 56.6107 416.445C65.6811 461.083 109.192 489.898 153.828 480.793Z" fill="#DC3564"/>
</g>
<g id="center_logo">
<path id="circle_black" d="M293.531 355.779C338.133 346.708 366.947 303.161 357.876 258.558C348.806 213.954 305.261 185.138 260.659 194.209C216.057 203.28 187.243 246.827 196.314 291.431C205.384 336.069 248.895 364.884 293.531 355.779Z" fill="#2B2B2A"/>
<path id="letter_s" d="M291.725 297.944C291.725 294.329 290.463 291.532 287.906 289.521C285.348 287.509 280.881 285.428 274.471 283.28C268.06 281.132 262.809 279.052 258.751 277.04C245.52 270.526 238.905 261.592 238.905 250.236C238.905 244.576 240.542 239.597 243.849 235.266C247.157 230.935 251.829 227.559 257.864 225.172C263.9 222.751 270.685 221.557 278.221 221.557C285.553 221.557 292.134 222.853 297.965 225.479C303.796 228.105 308.331 231.822 311.537 236.664C314.776 241.506 316.379 247.031 316.379 253.271H291.827C291.827 249.111 290.565 245.871 288.008 243.587C285.45 241.302 282.006 240.142 277.642 240.142C273.243 240.142 269.765 241.097 267.207 243.041C264.65 244.985 263.388 247.44 263.388 250.441C263.388 253.067 264.786 255.42 267.582 257.568C270.379 259.682 275.323 261.899 282.382 264.149C289.44 266.434 295.237 268.855 299.772 271.481C310.82 277.858 316.344 286.622 316.344 297.807C316.344 306.741 312.969 313.766 306.251 318.847C299.499 323.963 290.259 326.486 278.528 326.486C270.242 326.486 262.74 325.02 256.023 322.019C249.305 319.052 244.258 314.994 240.849 309.811C237.473 304.627 235.768 298.694 235.768 291.942H260.456C260.456 297.432 261.888 301.456 264.718 304.048C267.548 306.639 272.152 307.935 278.494 307.935C282.552 307.935 285.792 307.048 288.144 305.309C290.531 303.604 291.725 301.115 291.725 297.944Z" fill="white"/>
</g>
</g>
</svg>